Coordinates
version=1
nRows=6
nColumns=46
inDegrees=yes

Units are S.I. units (second, meters, Newtons, ...)
Angles are in degrees.

endheader
time	pelvis_tilt	pelvis_list	pelvis_rotation	pelvis_tx	pelvis_ty	pelvis_tz	bb_angle	bb_tx	bb_ty	bb_tz	hip_flexion_r	hip_adduction_r	hip_rotation_r	knee_angle_r	knee_angle_r_beta	ankle_angle_r	subtalar_angle_r	mtp_angle_r	crank_angle_r	hip_flexion_l	hip_adduction_l	hip_rotation_l	knee_angle_l	knee_angle_l_beta	ankle_angle_l	subtalar_angle_l	mtp_angle_l	crank_angle_l	lumbar_extension	lumbar_bending	lumbar_rotation	arm_flex_r	arm_add_r	arm_rot_r	elbow_flex_r	pro_sup_r	wrist_flex_r	wrist_dev_r	arm_flex_l	arm_add_l	arm_rot_l	elbow_flex_l	pro_sup_l	wrist_flex_l	wrist_dev_l
      0.00000000	    -29.06220753	      0.03233516	     -0.19489610	      0.04872087	      0.98876351	     -0.21343185	      0.00000000	      0.50000000	      0.00000000	      0.25000000	     93.90199009	     -8.53250689	     -3.52603939	     74.25357334	      1.29596934	      5.09454645	     -0.59829907	      0.00000000	      0.00000000	     71.05408431	     -9.60032543	     -1.65146484	     81.33172359	      1.41950636	     -4.21213069	     -9.11931293	      0.00000000	      0.00000000	    -40.92100859	      0.15832599	      0.07103943	     89.38792059	     -5.84635652	     28.77295063	     42.59897397	     36.32513337	      0.00000000	      0.00000000	     88.36209407	    -12.81948160	     28.79493614	     46.65429100	     37.86274934	      0.00000000	      0.00000000
      0.00500000	    -28.99985181	     -0.02876123	     -0.20404109	      0.04874991	      0.98887844	     -0.21339295	      0.00000000	      0.50000000	      0.00000000	      0.25000000	     93.83627870	     -8.53251312	     -3.60585329	     74.30067143	      1.29679135	      5.20175438	     -0.61055771	      0.00000000	      0.00000000	     70.97083501	     -9.64373531	     -1.59658309	     81.29530366	      1.41887072	     -4.12441612	     -9.02214879	      0.00000000	      0.00000000	    -41.01397715	      0.21495662	      0.16985230	     89.37921171	     -5.89616511	     28.68175885	     42.83060666	     36.68152320	      0.00000000	      0.00000000	     88.37176304	    -12.72913607	     28.76068465	     46.54587166	     38.18047956	      0.00000000	      0.00000000
      0.01000000	    -28.99863603	     -0.09000880	     -0.20678478	      0.04871763	      0.98888956	     -0.21335419	      0.00000000	      0.50000000	      0.00000000	      0.25000000	     93.84343225	     -8.54786294	     -3.70948929	     74.33451724	      1.29738207	      5.19407785	     -0.62968313	      0.00000000	      0.00000000	     70.97898070	     -9.67623592	     -1.54671655	     81.28111561	      1.41862309	     -4.11115798	     -8.99831182	      0.00000000	      0.00000000	    -41.02601289	      0.24707721	      0.21281389	     89.36974039	     -5.97675579	     28.63483351	     42.90092272	     36.99003583	      0.00000000	      0.00000000	     88.35716725	    -12.71397831	     28.64416926	     46.59248532	     38.48755913	      0.00000000	      0.00000000
      0.01500000	    -29.02656331	      0.04677963	     -0.14639849	      0.04871116	      0.98886570	     -0.21338320	      0.00000000	      0.50000000	      0.00000000	      0.25000000	     93.96911617	     -8.64512011	     -3.58768715	     74.38965923	      1.29834448	      5.03994054	     -0.60557330	      0.00000000	      0.00000000	     70.91830787	     -9.53855493	     -1.66348877	     81.15613378	      1.41644174	     -4.18268117	     -9.08455635	      0.00000000	      0.00000000	    -40.94658872	      0.19974435	      0.03710869	     89.38879359	     -5.83467306	     28.88180700	     42.52541526	     37.23442165	      0.00000000	      0.00000000	     88.42280354	    -12.72813371	     28.70340292	     46.15493699	     38.71761784	      0.00000000	      0.00000000
      0.02000000	    -29.02136475	     -0.03339692	     -0.18876112	      0.04864878	      0.98853925	     -0.21323888	      0.00000000	      0.50000000	      0.00000000	      0.25000000	     94.03939157	     -8.59850296	     -3.63237003	     74.52683234	      1.30073861	      5.05463945	     -0.55941996	      0.00000000	      0.00000000	     70.84509794	     -9.59640890	     -1.57792284	     81.01911917	      1.41405039	     -4.24596769	     -8.90264931	      0.00000000	      0.00000000	    -40.95686377	      0.24547570	      0.16714980	     89.38268985	     -5.92768988	     28.86788190	     42.49802483	     37.46083447	      0.00000000	      0.00000000	     88.42816611	    -12.68367380	     28.62929636	     46.15729370	     38.99649590	      0.00000000	      0.00000000
      0.02500000	    -29.02308429	     -0.06868274	     -0.18549161	      0.04853336	      0.98844256	     -0.21322125	      0.00000000	      0.50000000	      0.00000000	      0.25000000	     94.06532156	     -8.60452961	     -3.65855088	     74.54965169	      1.30113688	      5.08645826	     -0.52124616	      0.00000000	      0.00000000	     70.84641187	     -9.58932377	     -1.53428036	     80.99472541	      1.41362464	     -4.31193231	     -8.93512020	      0.00000000	      0.00000000	    -40.92004039	      0.25410260	      0.15086990	     89.38353485	     -6.00683863	     28.93355779	     42.45933200	     37.66224794	      0.00000000	      0.00000000	     88.42680511	    -12.64096578	     28.65194425	     46.00060595	     39.22298427	      0.00000000	      0.00000000
